<svg width="81" height="34" viewBox="0 0 81 34" fill="none" xmlns="http://www.w3.org/2000/svg">
<g clip-path="url(#clip0_13_4)">
<path d="M13.5624 27.5581C12.9143 27.3337 12.4714 27.0294 11.9306 26.4382C10.7946 25.1961 10.7322 24.8254 10.7322 19.3099C10.7322 13.9954 10.813 13.4949 11.8714 12.2471C13.3552 10.498 16.7862 10.5498 18.2515 12.3432C19.2246 13.5344 19.3037 14.0648 19.3037 19.3915C19.3037 23.6072 19.2674 24.3099 19.0126 25.0475C18.6218 26.1771 17.4705 27.2699 16.3023 27.6199C15.2007 27.9501 14.6581 27.938 13.5624 27.5579V27.5581ZM15.5767 25.0016C16.2381 24.7454 16.3117 24.1847 16.3117 19.4073C16.3117 16.3587 16.2509 14.703 16.129 14.4331C15.7198 13.5268 14.316 13.5268 13.9069 14.4331C13.7849 14.703 13.7241 16.3587 13.7241 19.4073C13.7241 24.7378 13.7915 25.047 14.9642 25.0902C15.1572 25.0973 15.4327 25.0573 15.5767 25.0016ZM22.7617 27.4687C22.5288 27.3411 22.2011 26.9582 22.0339 26.6185C21.7517 26.0454 21.7262 25.4592 21.6815 18.5348L21.6335 11.069H24.7215V17.9027C24.7215 23.7518 24.7561 24.7658 24.962 24.938C25.3204 25.2381 25.9026 25.0184 26.561 24.3347L27.1474 23.7255V11.0692H30.2202V27.5509H27.1474V25.8913L26.3792 26.5795C25.9568 26.9579 25.3768 27.368 25.0905 27.4909C24.4233 27.7769 23.3046 27.7662 22.7617 27.4687ZM4.01842 23.0222L4.01599 18.4938L2.01754 12.048L0.0190887 5.60215L1.64282 5.55532C2.59329 5.5279 3.30747 5.57555 3.36537 5.6702C3.41987 5.75914 3.93529 7.63414 4.51071 9.83681C5.08646 12.0395 5.59396 13.842 5.63908 13.8424C5.68436 13.8427 6.10841 12.3561 6.58162 10.5385C7.05499 8.72112 7.55068 6.84856 7.68346 6.37728L7.92492 5.52056H9.62887C11.0171 5.52056 11.317 5.56266 11.2466 5.74739C11.1992 5.87206 10.2816 8.8063 9.20773 12.2678L7.25521 18.5614V27.5506H4.02068L4.01842 23.0222Z" fill="#CFCFCF"/>
<path d="M46.0904 33.9071C38.1893 33.641 36.0498 33.0736 34.5952 30.8575C34.0075 29.9623 33.3478 27.9587 33.1377 26.4306C32.4003 21.0674 32.5814 9.88365 33.4678 6.02905C34.2706 2.53835 36.1585 0.828329 39.6023 0.472096C42.9853 0.122063 51.8042 -0.0685375 60.3822 0.0228463C69.6429 0.12141 74.0029 0.321312 75.5804 0.719648C78.6661 1.49853 80.1631 3.7921 80.685 8.53949C80.7836 9.43701 80.9049 12.5705 80.9544 15.5026C81.154 27.3393 80.2714 31.1048 76.908 32.7675C75.638 33.3954 74.8072 33.5397 71.2177 33.7559C67.3191 33.9905 51.4094 34.0863 46.0904 33.9071ZM49.9773 27.4554C50.25 27.313 50.7921 26.9 51.1822 26.5367L51.8915 25.8774V27.5507H54.9643V11.2322H51.8915V23.6774L51.1851 24.39C50.4269 25.1552 50.1203 25.2507 49.7199 24.8466C49.497 24.6217 49.4656 23.7653 49.4656 17.9112V11.232H46.3928V18.3011C46.3928 26.0992 46.4564 26.7162 47.3257 27.3709C47.876 27.7852 49.2606 27.8293 49.9773 27.4554ZM64.7672 27.4027C65.0494 27.2291 65.4405 26.7451 65.6567 26.3019C66.0361 25.5245 66.0437 25.4174 66.0969 20.1289C66.1551 14.3306 66.0626 13.2836 65.3876 12.1084C65.0125 11.4553 64.1182 10.9057 63.43 10.9057C62.7673 10.9057 61.8176 11.3556 61.0936 12.0124L60.3014 12.7309V5.68375H57.3904V27.5506H60.3014V26.0441L60.9653 26.6493C61.3305 26.982 61.8582 27.3549 62.1379 27.4776C62.8887 27.8076 64.1686 27.7712 64.7672 27.4027ZM60.9078 24.7409L60.3013 24.3861V14.3779L61.019 13.9938C61.6014 13.6821 61.8225 13.6402 62.1915 13.7709C62.989 14.0535 63.0749 14.6769 63.0196 19.7728L62.9698 24.3156L62.516 24.7092C61.9604 25.1913 61.6874 25.1966 60.9078 24.7409ZM74.5332 27.3739C76.0961 26.6589 76.8 25.4499 76.923 23.2684L77.0039 21.8393H73.8861V22.8079C73.8861 23.9943 73.7039 24.5126 73.1605 24.8719C72.548 25.2766 71.7868 25.0194 71.4203 24.2836C71.1989 23.8396 71.1373 23.2985 71.1373 21.7983L71.1368 19.8809H76.9589V17.4848C76.9589 14.4692 76.7252 13.508 75.7175 12.3771C74.8271 11.3779 73.873 10.9801 72.4306 11.0069C71.235 11.0289 70.436 11.3296 69.5968 12.0731C68.2254 13.2883 68.0174 14.3711 68.0994 19.881C68.1528 23.4612 68.2115 24.3334 68.4418 24.9491C68.8351 26.0003 69.5456 26.8007 70.5213 27.2914C71.621 27.844 73.4242 27.8812 74.5332 27.3739ZM71.137 16.2038C71.137 14.1741 71.653 13.4816 72.9517 13.7694C73.6036 13.914 73.8865 14.6503 73.8865 16.204V17.4331H71.1371V16.204L71.137 16.2038ZM43.32 18.1676V8.78443H46.878V5.68391H36.6892V8.78443H40.0855V27.5507H43.32V18.1676Z" fill="#53FC18"/>
</g>
<defs>
<clipPath id="clip0_13_4">
<rect width="81" height="34" fill="white"/>
</clipPath>
</defs>
</svg>
